<svg xmlns="http://www.w3.org/2000/svg" width="48" height="48" viewBox="0 0 48 48" role="img" aria-label="circuitmind">
<rect width="48" height="48" rx="10" fill="#1c120c"/><rect x=".5" y=".5" width="47" height="47" rx="9.5" fill="none" stroke="#ff6a1f" stroke-opacity=".35"/>
<g fill="none" stroke="#ff6a1f" stroke-width="2.2" stroke-linecap="round" stroke-linejoin="round"><rect x="14" y="14" width="20" height="20" rx="3"/><path d="M19 8v6M19 34v6M8 19h6M34 19h6"/><path d="M24 8v6M24 34v6M8 24h6M34 24h6"/><path d="M29 8v6M29 34v6M8 29h6M34 29h6"/><path d="M20 26c0-4 2-6 4-6s4 2 4 6M24 20v-3" stroke="#ffb020"/></g></svg>